# xmcd CD database file
#
# Track frame offsets:
#	187
#	20082
#	40282
#	60150
#
# Disc length: 1070 seconds
#
# Revision: 0
# Processed by: cddbd v1.5.1PL0 Copyright (c) Steve Scherf et al.
# Submitted via: CDex 1.51
#
DISCID=2a042c04
DTITLE=高橋真梨子 - そっと…Lovin' you
DYEAR=1994
DGENRE=JPop
TTITLE0=そっと…Lovin' you
TTITLE1=不思議な鳥
TTITLE2=そっと…Lovin' you(カラオケ)
TTITLE3=不思議な鳥(カラオケ)
EXTD=YEAR: 1994
EXTT0=
EXTT1=
EXTT2=
EXTT3=
PLAYORDER=
